<?xml version="1.0" encoding="utf-8"?>

<!DOCTYPE svg PUBLIC "-//W3C//DTD SVG 1.1//EN" "http://www.w3.org/Graphics/SVG/1.1/DTD/svg11.dtd">
<svg version="1.1" id="Layer_1" xmlns="http://www.w3.org/2000/svg" xmlns:xlink="http://www.w3.org/1999/xlink" x="0px" y="0px"
	 viewBox="0 0 1283.508 1656.927" enable-background="new 0 0 1283.508 1656.927" xml:space="preserve">
<g>
	<path d="M416.732,337.749c0-13.88,1.522-9.663-26.436-26.11c-20.31-11.948-10.53-18.245-14.572-38.505
		c-3.772-18.913,3.258-22.431-5.679-39.337c-7.532-14.249,24.937-19.591,22.39-34.748c-3.418-20.334,5.664-22.864,0.121-40.379
		c-4.9-15.484-2.076-30.363,10.336-40.058c14.402-11.25,17.79-6.161,43.358-14.636c24.317-8.06,48.194,4.267,49.201,4.293
		c59.341,1.533,93.679,115.278,63.621,151.786c-31.492,38.252-36.475,51.256-31.23,73.309c0.292,1.227,0.82,2.017,2.185,2.203
		c16.085,2.186,16.069,3.58,31.266,16.931c1.961,1.723,3.43,3.897,4.852,6.076c35.834,54.913,32.156,33.27,51.419,88.057
		c13.192,37.521,0.024,42.221,14.447,86.382c10.952,33.534,5.035,43.895,21.26,63.444c8.667,10.442,13.446,16.084,15.032,25.177
		c2.901,16.632,12.846,20.124,27.973,58.114c7.756,19.48,16.449,20.482,30.079,53.252c6.064,14.579,0.759,25.63,13.23,38.951
		c15.989,17.077,63.003,55.37,63.579,152.52c0.065,10.97-3.808,18.41-0.213,30.417c5.745,19.185-1.795,22.107,6.94,39.881
		c3.94,8.018,7.151,16.342,10.197,24.74c4.932,13.598,25.226,54.923,36.095,79.838c5.557,12.739,7.361,22.025,13.419,31.784
		c9.323,15.016,4.581,19.274,11.206,31.944c20.062,38.364-1.037,28.944,42.265,55.769c15.999,9.91,17.765,14.744,26.084,17.782
		c67.508,24.658,237.201,204.741,265.307,212.492c11.14,3.072,19.155,11.258,27.153,19.856c8.677,9.328,14.25,24.89,18.41,37.778
		c3.37,10.441,0.254,19.991-7.326,28.182c-14.772,15.962-23.191,24.288-34.214,21.202c-14.472-4.051-33.71,69.489-72.611,72.197
		c-0.594,0.041-97.816,0.026-98.413,0.026c-4.813,0-7.55,0.474-10.138-2.051c-6.749-6.586-5.577-13.093-0.315-17.067
		c2.096-1.583,4.604-2.538,12.847-4.246c38.466-7.968,73.307-49.913,52.995-70.532c-24.156-24.518-21.527-24.692-30.006-30.525
		c-75.313-51.824-104.605-115.931-164.889-132.59c-8.272-2.286-11.369-7.248-13.91-9.389
		c-18.116-15.259-13.065-25.258-30.691-35.066c-77.052-42.877-63.853-59.602-102.507-113.215
		c-11.719-16.253-18.539-18.815-36.375-43.801c-42.76-59.9-65.216-113.382-72.056-106.462
		c-10.523,10.646-35.166,52.953-39.901,61.511c-50.792,91.788-61.971,57.011-45.67,102.379c4.517,12.57,18.563,17.374,29.682,40.037
		c9.869,20.116,21.402,39.361,31.103,59.563c7.43,15.473,32.13,73.467,49.037,94.447c7.383,9.161,14.799,20.591,19.563,31.848
		c4.001,9.453,28.058,51.248,40.448,60.308c12.161,8.893,16.999,29.172,17.73,38.268c0.866,10.794-1.561,17.294-2.202,33.464
		c-0.607,15.31-15.418,18.575-51.701,20.079c-8.61,0.357-14.083-5.808-15.519-10.342c-0.402-1.27-1.26-1.81-2.577-1.68
		c-49.772,4.903-49.576,20.99-70.257,22.165c-10.298,0.585-10.613,6.082-23.721,6.349c-28.757,0.585-67.205,2.589-89.118-16.01
		c-8.011-6.799-9.71-19.158-0.434-22.405c9.829-3.441,13.946,0.437,31.437-1.176c27.132-2.5,28.231-7.638,45.123-11.314
		c11.078-2.41,14.219-8.237,23.92-17.492c3.775-3.602,6.171-7.849,6.925-13.054c5.564-38.412-9.167-18.411-24.269-58.507
		c-6.133-16.284-15.512-28.088-28.677-49.107c-25.519-40.742-73.689-122.597-99.859-173.383
		c-44.473-86.304-27.375-61.979,0.226-150.51c13.744-44.085,57.553-131.929,64.758-149.022c3.859-9.156,5.869-8.072,15.506-21.063
		c31.878-42.973,37.153-48.136,27.361-70.638c-6.216-14.285,1.434-18.975-8.217-32.496c-9.737-13.641-14.842-21.06-19.636-32.935
		c-13.416-33.234-51.153-103.011-79.87-176.446c-17.324-44.301-20.312-85.362-23.765-116.429
		c-1.524-13.71,2.509-43.505-3.822-58.919c-6.198-15.091-26.369-10.827-58.17-20.706c-79.005-24.543-88.302-15.379-116.771-31.028
		c-18.787-10.328-49.144-16.499-64.034-32.045c-10.728-11.2-14.449-15.041-21.235-18.399c-13.302-6.583-13.344-10.488-35.869-26.705
		c-15.069-10.849-9.513-12.496-38.975-39.384c-44.204-40.343-44.584-46.109-62.186-75.329c-4.138-6.87-5.513-13.723-6.295-21.772
		c-2.548-26.206,7.83-25.875,7.313-46.092c-1.1-43.035,16.977-24.664,18.428-46.305c0.55-8.202,2.937-10.968,4.095-21.958
		c2.9-27.534,4.2-47.911,13.765-41.648c7.636,5,10.08,58.066,3.156,79.479c-2.621,8.107,2.764,10.232,2.545,28.812
		c-0.453,38.314-0.852,37.321,11.542,45.834c4.917,3.377,19.337,12.731,30.298,16.383c15.527,5.175,37.867,18.386,59.864,25.773
		c28.385,9.531,20.373,22.112,83.486,33.815c32.19,5.969,48.795,35.434,72.033,42.908c9.859,3.171,10.868,6.215,20.883,9.211
		c9.925,2.969,11.95,6.279,19.976,8.879c14.702,4.762,17.4,20.844,41.583,17.287C413.062,337.675,414.618,337.394,416.732,337.749z"
		/>
</g>
</svg>
