<svg xmlns="http://www.w3.org/2000/svg" width="40" height="38" viewBox="0 0 37.5 35.625"><g stroke="#c4c4c4" stroke-linejoin="bevel" stroke-width=".211"><path fill="#f3f3f0" d="m9.526 5.025 9.233 3.36 9.37-3.41-9.233-3.361z"/><path fill="#fff" d="M18.759 8.385v10.852l9.37-3.41V4.975z"/><path fill="#e7e6e2" d="m9.526 5.025 9.233 3.36v10.852l-9.233-3.361z"/><path fill="#f3f3f0" d="m.215 19.303 9.233 3.36 9.37-3.41-9.233-3.361z"/><path fill="#fff" d="M9.448 22.663v10.852l9.37-3.41V19.253z"/><path fill="#e7e6e2" d="m.215 19.303 9.233 3.36v10.852L.215 30.154z"/><path fill="#f3f3f0" d="m18.713 19.303 9.233 3.36 9.37-3.41-9.233-3.361z"/><path fill="#fff" d="M27.946 22.663v10.852l9.37-3.41V19.253z"/><path fill="#e7e6e2" d="m18.713 19.303 9.233 3.36v10.852l-9.233-3.361z"/></g></svg>
